<?xml version="1.0" encoding="iso-8859-1"?>
<!-- Uploaded to: SVG Repo, www.svgrepo.com, Generator: SVG Repo Mixer Tools -->
<svg height="800px" width="800px" version="1.1" id="Layer_1" xmlns="http://www.w3.org/2000/svg" xmlns:xlink="http://www.w3.org/1999/xlink" 
	 viewBox="0 0 512 512" xml:space="preserve">
<path style="fill:#BBD7D8;" d="M454.695,102.026v372.457c0,20.694-18.649,37.517-41.579,37.517H98.884
	c-22.93,0-41.579-16.823-41.579-37.517V102.026c0-20.681,18.649-37.517,41.579-37.517h314.232
	C436.046,64.51,454.695,81.346,454.695,102.026z"/>
<path style="fill:#B1CCCD;" d="M454.695,102.026v372.457c0,20.694-18.649,37.517-41.579,37.517H256V64.51h157.116
	C436.046,64.51,454.695,81.346,454.695,102.026z"/>
<path style="fill:#477777;" d="M324.667,379.191c0,0.286-0.027,0.573-0.055,0.859c-0.014,0.382-0.027,0.75-0.068,1.132
	c-0.041,0.354-0.109,0.695-0.164,1.036c-0.055,0.314-0.095,0.627-0.164,0.927c-0.082,0.423-0.204,0.832-0.327,1.241
	c-0.055,0.232-0.109,0.464-0.191,0.695c-0.164,0.518-0.354,1.009-0.559,1.513c-0.041,0.123-0.082,0.245-0.136,0.368l-0.027,0.082
	c-0.014,0.014-0.014,0.027-0.027,0.041l-47.564,111.637c-1.5,4.022-4.267,7.552-8.03,9.979c-0.041,0.027-0.068,0.041-0.095,0.055
	c-0.736,0.477-1.513,0.913-2.331,1.295c-0.068,0.027-0.136,0.068-0.204,0.095c-0.123,0.055-0.259,0.136-0.395,0.191
	c-0.204,0.095-0.423,0.15-0.627,0.232c-0.232,0.095-0.464,0.177-0.682,0.259c-0.327,0.109-0.654,0.232-0.982,0.327
	c-0.477,0.15-0.968,0.273-1.472,0.382c-0.273,0.055-0.559,0.109-0.845,0.15c-0.327,0.055-0.654,0.109-0.995,0.15
	c-0.245,0.027-0.491,0.068-0.75,0.082c-0.518,0.055-1.036,0.082-1.554,0.082h-0.164c0,0-0.014,0-0.027,0c0,0-0.014,0-0.027,0H256
	c-0.504,0-1.009-0.027-1.513-0.082c-0.245-0.014-0.491-0.055-0.75-0.082c-0.327-0.041-0.668-0.095-0.995-0.15
	c-0.286-0.055-0.559-0.095-0.845-0.15c-0.491-0.109-0.982-0.245-1.472-0.382c-0.314-0.095-0.641-0.204-0.954-0.327
	c-0.232-0.082-0.477-0.164-0.709-0.259c-0.218-0.082-0.423-0.136-0.627-0.232c-0.136-0.055-0.259-0.123-0.382-0.191
	c-0.095-0.041-0.177-0.082-0.273-0.136c-0.777-0.368-1.527-0.777-2.236-1.227c-0.055-0.027-0.095-0.055-0.136-0.082
	c-3.749-2.427-6.503-5.93-8.002-9.925L189.05,387.084c-0.014-0.014-0.014-0.027-0.027-0.041l-0.027-0.082
	c-0.055-0.136-0.095-0.273-0.15-0.395c-0.204-0.491-0.395-0.982-0.545-1.486c-0.082-0.232-0.136-0.464-0.204-0.709
	c-0.109-0.409-0.232-0.804-0.314-1.227c-0.068-0.314-0.109-0.613-0.164-0.927c-0.055-0.341-0.123-0.682-0.164-1.036
	c-0.041-0.382-0.055-0.763-0.082-1.132c-0.014-0.286-0.041-0.573-0.041-0.859c0-0.45,0.014-0.913,0.041-1.363
	c0.014-0.218,0.014-0.423,0.027-0.641c0.055-0.573,0.123-1.131,0.218-1.69c0.027-0.109,0.027-0.204,0.041-0.3l0.014-0.068
	c0.014-0.027,0.014-0.055,0.014-0.095l44.62-243.465c2.031-11.083,12.624-18.404,23.693-16.441
	c11.056-1.977,21.662,5.358,23.693,16.441l44.62,243.465c0,0.041,0,0.068,0.014,0.095l0.014,0.068
	c0.014,0.095,0.014,0.191,0.041,0.286c0.095,0.573,0.164,1.132,0.218,1.704c0.014,0.218,0.014,0.423,0.027,0.641
	C324.654,378.278,324.667,378.741,324.667,379.191z"/>
<path style="fill:#437171;" d="M324.667,379.191c0,0.286-0.027,0.573-0.055,0.859c-0.014,0.382-0.027,0.75-0.068,1.132
	c-0.041,0.354-0.109,0.695-0.164,1.036c-0.055,0.314-0.095,0.627-0.164,0.927c-0.082,0.423-0.204,0.832-0.327,1.241
	c-0.055,0.232-0.109,0.464-0.191,0.695c-0.164,0.518-0.354,1.009-0.559,1.513c-0.041,0.123-0.082,0.245-0.136,0.368l-0.027,0.082
	c-0.014,0.014-0.014,0.027-0.027,0.041l-47.564,111.637c-1.5,4.022-4.267,7.552-8.03,9.979c-0.041,0.027-0.068,0.041-0.095,0.055
	c-0.736,0.477-1.513,0.913-2.331,1.295c-0.068,0.027-0.136,0.068-0.204,0.095c-0.123,0.055-0.259,0.136-0.395,0.191
	c-0.204,0.095-0.423,0.15-0.627,0.232c-0.232,0.095-0.464,0.177-0.682,0.259c-0.327,0.109-0.654,0.232-0.982,0.327
	c-0.477,0.15-0.968,0.273-1.472,0.382c-0.273,0.055-0.559,0.109-0.845,0.15c-0.327,0.055-0.654,0.109-0.995,0.15
	c-0.245,0.027-0.491,0.068-0.75,0.082c-0.518,0.055-1.036,0.082-1.554,0.082h-0.164c0,0-0.014,0-0.027,0c0,0-0.014,0-0.027,0H256
	V115.127c11.056-1.977,21.662,5.358,23.693,16.441l44.62,243.465c0,0.041,0,0.068,0.014,0.095l0.014,0.068
	c0.014,0.095,0.014,0.191,0.041,0.286c0.095,0.573,0.164,1.132,0.218,1.704c0.014,0.218,0.014,0.423,0.027,0.641
	C324.654,378.278,324.667,378.741,324.667,379.191z"/>
<path style="fill:#477777;" d="M348.081,40.898H163.918c-11.293,0-20.449-9.156-20.449-20.449S152.625,0,163.918,0h184.163
	c11.293,0,20.449,9.156,20.449,20.449S359.376,40.898,348.081,40.898z"/>
<path style="fill:#B1CCCD;" d="M368.537,20.449v86.472c0,4.853-1.704,9.297-4.512,12.801c-2.549,3.763-6.353,6.721-11.042,8.139
	l-89.28,26.965c-1.977,0.6-3.967,0.886-5.93,0.886c-0.6,0-1.186-0.041-1.772-0.095c-0.586,0.055-1.186,0.095-1.772,0.095
	c-1.963,0-3.953-0.286-5.93-0.886l-89.28-26.965c-4.69-1.418-8.493-4.376-11.042-8.139c-2.808-3.504-4.512-7.948-4.512-12.801
	V20.449C143.463,9.147,152.624,0,163.912,0c0.354,0,0.682,0.027,1.036,0.041c2.318-0.123,4.703,0.123,7.062,0.832L256,26.243
	l83.991-25.37c2.358-0.709,4.744-0.954,7.062-0.818C347.393,0.027,347.734,0,348.088,0C359.376,0,368.537,9.147,368.537,20.449z"/>
<path style="fill:#99BABA;" d="M368.537,20.449v86.472c0,4.853-1.704,9.297-4.512,12.801c-2.549,3.763-6.353,6.721-11.042,8.139
	l-89.28,26.965c-1.977,0.6-3.967,0.886-5.93,0.886c-0.6,0-1.186-0.041-1.772-0.095V26.243l83.991-25.37
	c2.358-0.709,4.744-0.954,7.062-0.818C347.393,0.027,347.734,0,348.088,0C359.376,0,368.537,9.147,368.537,20.449z"/>
</svg>